<svg xmlns="http://www.w3.org/2000/svg" width="121.583" height="51.085" viewBox="0 0 121.583 51.085"><defs><style>.a{fill:#fff;}.b{fill:#9fa6f8;}</style></defs><g transform="translate(0 0)"><g transform="translate(65.143 39.388)"><path class="a" d="M270.115-410.379a1.377,1.377,0,0,1-1.382-1.491,1.353,1.353,0,0,1,1.359-1.474,1.157,1.157,0,0,1,1.211.889l1.053-.376a2.2,2.2,0,0,0-2.272-1.567,2.472,2.472,0,0,0-2.535,2.529,2.493,2.493,0,0,0,2.566,2.53,2.3,2.3,0,0,0,2.294-1.546l-1.051-.367a1.23,1.23,0,0,1-1.243.874" transform="translate(-261.971 415.827)"/><path class="a" d="M309.8-412.165h1.181v-6.34H309.8Z" transform="translate(-289.544 418.507)"/><path class="a" d="M315.665-412.165h1.179v-6.34h-1.183Z" transform="translate(-293.37 418.507)"/><path class="a" d="M321.544-409.19h1.174v-4.756h-1.174Z" transform="translate(-297.21 415.532)"/><path class="a" d="M346.1-414.366a1.652,1.652,0,0,0-1.466.781v-.635h-1.149v4.756h1.178v-2.745a1.022,1.022,0,0,1,1.032-1.128.94.94,0,0,1,1.019,1.05v2.824H347.9v-3.006a1.718,1.718,0,0,0-1.8-1.9" transform="translate(-311.527 415.805)"/><path class="a" d="M360.441-410.379a1.379,1.379,0,0,1-1.385-1.491,1.355,1.355,0,0,1,1.364-1.474,1.14,1.14,0,0,1,1.2.889l1.068-.376a2.213,2.213,0,0,0-2.276-1.567,2.476,2.476,0,0,0-2.537,2.529,2.5,2.5,0,0,0,2.569,2.53,2.29,2.29,0,0,0,2.284-1.546l-1.04-.367a1.238,1.238,0,0,1-1.244.874" transform="translate(-320.918 415.827)"/><path class="a" d="M373.771-412.4a1.169,1.169,0,0,1,1.212-1.044A1.086,1.086,0,0,1,376.2-412.4Zm3.624.476a2.272,2.272,0,0,0-2.427-2.477,2.437,2.437,0,0,0-2.414,2.507,2.454,2.454,0,0,0,2.54,2.553,2.234,2.234,0,0,0,2.241-1.5l-1-.31a1.2,1.2,0,0,1-1.243.833,1.3,1.3,0,0,1-1.352-1.241h3.623a1.77,1.77,0,0,0,.03-.368" transform="translate(-330.499 415.827)"/><path class="a" d="M285.718-416.926h-1.375v-1.584h-1.164v1.584h-1.365v1h1.365v3.754h1.164v-3.754h1.375Z" transform="translate(-271.281 418.51)"/><path class="a" d="M321.544-417.379h1.174V-418.5h-1.174Z" transform="translate(-297.21 418.501)"/><path class="a" d="M254.022-410.331a1.375,1.375,0,0,1-1.342-1.552,1.348,1.348,0,0,1,1.342-1.5,1.332,1.332,0,0,1,1.316,1.5,1.375,1.375,0,0,1-1.316,1.552m1.305-3.281a1.49,1.49,0,0,0-1.455-.768,2.374,2.374,0,0,0-2.378,2.5,2.377,2.377,0,0,0,2.4,2.537,1.562,1.562,0,0,0,1.434-.778v.647h1.155v-4.757h-1.155Z" transform="translate(-251.493 415.815)"/><path class="a" d="M295.474-410.331a1.376,1.376,0,0,1-1.339-1.552,1.346,1.346,0,0,1,1.339-1.5,1.338,1.338,0,0,1,1.324,1.5,1.381,1.381,0,0,1-1.324,1.552m1.315-3.281a1.5,1.5,0,0,0-1.462-.768,2.37,2.37,0,0,0-2.375,2.5,2.372,2.372,0,0,0,2.4,2.537,1.575,1.575,0,0,0,1.438-.778v.647h1.141v-4.757h-1.141Z" transform="translate(-278.55 415.815)"/><path class="a" d="M329.172-410.331a1.375,1.375,0,0,1-1.337-1.552,1.345,1.345,0,0,1,1.337-1.5,1.338,1.338,0,0,1,1.325,1.5,1.381,1.381,0,0,1-1.325,1.552m1.313-3.281a1.5,1.5,0,0,0-1.464-.768,2.371,2.371,0,0,0-2.372,2.5,2.373,2.373,0,0,0,2.4,2.537,1.561,1.561,0,0,0,1.439-.778v.647h1.149v-4.757h-1.149Z" transform="translate(-300.541 415.815)"/></g><path class="b" d="M78.963-497.065h-4.9A25.6,25.6,0,0,0,97.88-480.81a25.536,25.536,0,0,0,25.528-25.527A25.543,25.543,0,0,0,97.88-531.9,25.586,25.586,0,0,0,74.1-515.7H79a21.033,21.033,0,0,1,18.884-11.76,21.054,21.054,0,0,1,21.039,21.122,21.046,21.046,0,0,1-21.039,21.09,21.045,21.045,0,0,1-18.916-11.818m28.761-9.285a2.656,2.656,0,0,1-2.656,2.656,2.656,2.656,0,0,1-2.655-2.656,2.658,2.658,0,0,1,2.655-2.662,2.658,2.658,0,0,1,2.656,2.662m-11.6-11.561c-7.728,0-14.461,3.022-20.485,8.552l-8.584-8.423-3.087,3.138,8.443,8.288-8.443,8.289,3.087,3.144,8.584-8.429c6.024,5.523,12.77,8.558,20.485,8.558a28.174,28.174,0,0,0,22.614-11.561,28.177,28.177,0,0,0-22.614-11.554m0,18.7c-7.208,0-12.159-2.585-17.425-7.137,5.266-4.565,10.217-7.144,17.425-7.144a22.857,22.857,0,0,1,17.245,7.137,22.83,22.83,0,0,1-17.245,7.144" transform="translate(-63.969 531.896)"/><g transform="translate(65.443 12.666)"><path class="a" d="M257.3-490.008v11.729h2.553c2.3,0,4.743-1.094,4.743-6.145,0-3.508-1.544-5.584-5.472-5.584Zm1.712-3.956c5.584,0,10.719,2.468,10.719,9.54,0,7.688-5.079,10.1-9.849,10.1h-7.52v-19.641Z" transform="translate(-252.357 494.475)"/><path class="a" d="M324.2-489.6l-4.77,1.207c-.842-1.992-2.021-2.974-4.1-2.974-2.863,0-4.658,2.217-4.658,6.2s1.684,6.313,4.715,6.313c2.385,0,3.7-1.207,4.546-3.423l4.658,1.4c-1.572,4.013-5.051,6.09-9.485,6.09-4.742,0-9.541-3-9.541-10.354,0-7.212,4.714-10.3,9.737-10.3,3.733,0,7.24,1.543,8.9,5.837" transform="translate(-287.086 495.435)"/><path class="a" d="M369.215-490.289l-2.413,9.232h4.827Zm3.452,13.1h-6.93l-.786,2.861h-5.022l6.285-19.641h6.173l6.314,19.641h-5.247Z" transform="translate(-322.56 494.475)"/></g></g></svg>