<svg xmlns="http://www.w3.org/2000/svg" width="20" height="20" viewBox="0 0 20 20"><defs><style>.a{fill:#757575;}</style></defs><path class="a" d="M15,17.586,13.914,16.5l.793-.793a1,1,0,1,0-1.414-1.414l-.793.793L11.414,14,14,11.414,17.586,15ZM3.437,14.852l1.711,1.711-2.567.856.856-2.567ZM4.914,7.5l.793-.793A1,1,0,1,0,4.293,5.293L3.5,6.086,2.414,5,5,2.414,8.586,6,6,8.586ZM17.465,2.535a1.83,1.83,0,0,1,0,2.586L17,5.586,14.414,3l.465-.465a1.83,1.83,0,0,1,2.586,0ZM4.415,13,13,4.414,15.586,7,7,15.586,4.414,13Zm15.292,1.293L15.414,10l3.465-3.465a3.828,3.828,0,0,0-5.414-5.414L10,4.586,5.707.293a1,1,0,0,0-1.414,0l-4,4a1,1,0,0,0,0,1.414L4.586,10,2.293,12.293a1,1,0,0,0-.24.391l-2,6a1,1,0,0,0,1.263,1.264l6-2a1,1,0,0,0,.391-.24L10,15.413l4.293,4.293a1,1,0,0,0,1.414,0l4-4a1,1,0,0,0,0-1.414Z" transform="translate(0 0)"/></svg>